<svg xmlns="http://www.w3.org/2000/svg" viewBox="0 0 142.96 142.96">
  <defs>
    <style>
      .cls-1 {
        fill: #212c32;
      }

      .cls-2 {
        fill: #fff;
        fill-rule: evenodd;
      }
    </style>
  </defs>
  <title>a2</title>
  <g id="Layer_2" data-name="Layer 2">
    <g id="Layer_1-2" data-name="Layer 1">
      <circle class="cls-1" cx="71.48" cy="71.48" r="71.48"/>
      <g id="copy">
        <path class="cls-2" d="M85,53.74H49.68a5.88,5.88,0,0,0-5.88,5.88V98.87a5.88,5.88,0,0,0,5.88,5.88H85a5.89,5.89,0,0,0,5.89-5.88V59.62A5.89,5.89,0,0,0,85,53.74Zm2,43.17A3.92,3.92,0,0,1,83,100.83H51.64a3.93,3.93,0,0,1-3.92-3.92V61.59a3.93,3.93,0,0,1,3.92-3.93H83A3.92,3.92,0,0,1,87,61.59ZM96.77,42H61.45a5.89,5.89,0,0,0-5.88,5.89v2h3.92a3.93,3.93,0,0,1,3.93-3.92H94.81a3.93,3.93,0,0,1,3.93,3.92V85.13a3.93,3.93,0,0,1-3.93,3.93V93h2a5.89,5.89,0,0,0,5.89-5.89V47.85A5.89,5.89,0,0,0,96.77,42Z"/>
      </g>
    </g>
  </g>
</svg>
