<svg xmlns="http://www.w3.org/2000/svg" viewBox="0 0 142.96 142.96">
  <defs>
    <style>
      .cls-1 {
        fill: #212c32;
      }

      .cls-2 {
        fill: #fff;
        fill-rule: evenodd;
      }
    </style>
  </defs>
  <title>a3</title>
  <g id="Layer_2" data-name="Layer 2">
    <g id="Layer_1-2" data-name="Layer 1">
      <circle class="cls-1" cx="71.48" cy="71.48" r="71.48"/>
      <g id="label">
        <path class="cls-2" d="M79.68,59.37A5.63,5.63,0,1,0,85.31,65,5.63,5.63,0,0,0,79.68,59.37Zm0,8A2.41,2.41,0,1,1,82.1,65,2.41,2.41,0,0,1,79.68,67.41ZM90.81,49.72l-18.38,0a9.36,9.36,0,0,0-7.27,2.9L44.79,72.75a4.33,4.33,0,0,0,0,6.14l21.09,21a4.36,4.36,0,0,0,6.16,0L92.78,79.43C95,77.25,95,72.49,95,71.46V54.09A4.2,4.2,0,0,0,90.81,49.72Zm.94,21.56c0,.87,0,4.89-1.85,6.72L71.69,95.93a3.7,3.7,0,0,1-5.21,0L48.67,78.21a3.66,3.66,0,0,1,0-5.19L66.58,55.4A7.9,7.9,0,0,1,72.72,53l15.52,0a3.56,3.56,0,0,1,3.51,3.69Z"/>
      </g>
    </g>
  </g>
</svg>
