<svg xmlns="http://www.w3.org/2000/svg" viewBox="0 0 142.96 142.96">
  <defs>
    <style>
      .cls-1 {
        fill: #212c32;
      }

      .cls-2 {
        fill: #fff;
        fill-rule: evenodd;
      }
    </style>
  </defs>
  <title>a5</title>
  <g id="Layer_2" data-name="Layer 2">
    <g id="Layer_1-2" data-name="Layer 1">
      <circle class="cls-1" cx="71.48" cy="71.48" r="71.48"/>
      <g id="card">
        <path class="cls-2" d="M94.69,51.45H45.21a5.71,5.71,0,0,0-5.71,5.71V89.52a5.7,5.7,0,0,0,5.71,5.7H94.69a5.71,5.71,0,0,0,5.71-5.7V57.16A5.71,5.71,0,0,0,94.69,51.45Zm1.9,36.16a3.81,3.81,0,0,1-3.81,3.81H47.11a3.82,3.82,0,0,1-3.81-3.81v-19H96.59V62.87H43.3v-3.8a3.81,3.81,0,0,1,3.81-3.81H92.78a3.8,3.8,0,0,1,3.81,3.81ZM85.17,76.19a3.78,3.78,0,0,0-2.85,1.32,3.81,3.81,0,1,0,0,5,3.8,3.8,0,1,0,2.85-6.3Z"/>
      </g>
    </g>
  </g>
</svg>
