<svg xmlns="http://www.w3.org/2000/svg" xmlns:xlink="http://www.w3.org/1999/xlink" viewBox="0 0 267.72 313.8">
  <defs>
    <style>
      .cls-1 {
        fill: none;
      }

      .cls-2 {
        fill: #fff;
      }

      .cls-3 {
        clip-path: url(#clip-path);
      }

      .cls-4 {
        fill: #6b3f8a;
      }

      .cls-5 {
        opacity: 0.4;
      }

      .cls-6 {
        fill: #0f121f;
      }

      .cls-7 {
        fill: #0d1a14;
        opacity: 0.09;
      }

      .cls-8 {
        fill: #522c6b;
      }

      .cls-9 {
        fill: #cb2527;
      }

      .cls-10 {
        fill: #f1e2a9;
      }

      .cls-11 {
        fill: #d7d0b4;
      }

      .cls-12 {
        opacity: 0.1;
      }
    </style>
    <clipPath id="clip-path">
      <circle class="cls-1" cx="134.49" cy="134.22" r="133.63"/>
    </clipPath>
  </defs>
  <title>accountMuch</title>
  <g id="Layer_2" data-name="Layer 2">
    <g id="Layer_1-2" data-name="Layer 1">
      <g>
        <circle class="cls-2" cx="133.86" cy="133.86" r="133.86"/>
        <g class="cls-3">
          <g>
            <path class="cls-4" d="M67.27,163.32c-23.38,11.3-40.18,33.25-46.3,58.57a98.88,98.88,0,0,0-1.42,39c1.73,10.58,5.06,29.6,16.58,34a13.77,13.77,0,0,0,8.21.39c7.88-1.89,12.11-12.44,7.66-19.21-2.93-4.46-7.7-7-10.46-11.73-5.7-9.85-3.71-22.59-1.4-33.19a79,79,0,0,1,9.17-22.82c5.07-8.68,10.92-15.52,19.72-20.47,5.53-3.1,14.82-7.73,14.88-15.17a10,10,0,0,0-1.83-5.49C78.7,162,72.74,160.68,67.27,163.32Z"/>
            <path class="cls-5" d="M83.91,172.7c-.06,7.44-9.35,12.07-14.88,15.17A48.77,48.77,0,0,0,52.2,203.75c1.18-7,2.87-15.35,3.2-16s3-12.07,4.89-20.63q3.38-2.07,7-3.81c5.47-2.64,11.43-1.36,14.81,3.88A10,10,0,0,1,83.91,172.7Z"/>
            <path class="cls-4" d="M173.79,222.36a61,61,0,0,0,36.45-14.18c8.47-7.12,14-16.79,18.08-26.92,6.3-15.64,7.85-32.78,5.5-49.41-1.38-9.74-3.49-19.94-7.65-29.1-2.76-6.11-6.86-13.76-13.42-16.44-6.11-2.5-12.3,1.45-14.24,7.42-2.3,7,1.81,14.39,6.81,19.16,11.67,11.13,9.8,73.25-13.93,82-6.71,2.46-13.94,2.06-23.33,7.65a10.6,10.6,0,0,0-5.06,8.05C162.48,216.51,167.63,222.72,173.79,222.36Z"/>
            <path class="cls-5" d="M206.31,211.22a61.47,61.47,0,0,1-32.51,11.15c-6.17.35-11.32-5.86-10.8-11.82a10.6,10.6,0,0,1,5.06-8.05c9.39-5.59,16.62-5.19,23.33-7.65,4.29-1.57,7.86-4.89,10.76-9.32A200.76,200.76,0,0,0,206.31,211.22Z"/>
            <path class="cls-4" d="M173,91.27c-8.61-4.91-18.71-7.15-28.94-8.46-12.77-1.64-29.48-1.75-40.94,4.82-10.79,6.18-18.42,15.81-23.45,27.08-8.47,19-10.74,40.09-17.25,59.67-9.48,28.53-14.14,57.27-7.31,87,2.55,11.1,5.25,22.75,13.45,31,33.58,33.73,108,27.43,130.23-16.68,13.61-27,4.21-59.23,1.84-87.63-3.31-39.68,1.83-46.44-5.35-67.38C191.23,109,183.88,97.5,173,91.27Z"/>
            <path class="cls-4" d="M134.51,115.19s6.17,6,20.42,8.41c0,0-12.18,8.82-22.89-9"/>
            <g>
              <g>
                <path class="cls-2" d="M155.66,111.32c2.08,7.73-3.17,15.12-10.66,17.1s-15.76-1.91-17.84-9.64,3.13-15.17,10.64-17.13S153.58,103.6,155.66,111.32Z"/>
                <path class="cls-6" d="M145.55,114.45a4.93,4.93,0,1,1-6-3.23A4.75,4.75,0,0,1,145.55,114.45Z"/>
                <path class="cls-7" d="M148.82,102.81c-10.23-.08-20.88,4.54-21.74,16-1.67-5.23.31-10.38,4.55-13.9A16.09,16.09,0,0,1,148.82,102.81Z"/>
              </g>
              <path class="cls-4" d="M128,122.26c7.34,4.15,18.92,4.27,27,3.56-8.74,10.38-22,4.1-30.1-3.47"/>
              <path class="cls-8" d="M126.38,117.42c1.05-3.72-1.24-5.56.62-9.74,2.61-5.89,8.09-9.52,15.25-9.45,9.76.11,14.44,5.8,14.61,15.73a16.18,16.18,0,0,0-17.32-12.43c-4.08.35-5.38,1-7.93,3.42C128.15,108.29,127.84,113.07,126.38,117.42Z"/>
            </g>
            <g class="animated zoomIn delay quick">
              <path class="cls-6" d="M168,173.23a1,1,0,0,1-.57,0c-2.28.12-2.88.06-2.62-.1l.13-.06h.15l2.3.06.69,0h0Z"/>
              <path class="cls-6" d="M178.6,151.53h0a.11.11,0,0,0,0,.05v0c-.23,1.32-.47,2.65-.71,4v0c-.21,1.71-.61,3.42-.92,5.11a13.76,13.76,0,0,1-2.19,5.69,33.55,33.55,0,0,1-3.6,4.54l0,0-.06.06h0c-.14.12-.51.42-1.09.84-.63.2-1.82.46-2.9.71-.82.18-1.58.36-2,.49l-.16.06h-.21l-4.85-.12-3.42-.09h-.24l-9.35-.24h0l-3.31-.08h-.07l-3.69-.1-13.32-.33-2.43-.06-2.53-.06-1.1,0-7.89-.19-5-.13c-1.14,0-2.31,0-3.44-.08a2.91,2.91,0,0,1-.63-.14h0l-1.09-.79-.08-.07-.24-.19,0,0-.33-.26-.22-.18-.08-.07-.19-.16-.88-.79-.28-.27c-.09-.08-.17-.17-.26-.26l-.3-.3-.31-.33-.28-.31-.27-.32a18.57,18.57,0,0,1-1.31-2,29.82,29.82,0,0,1-3.48-11.49c-.08-.69-.17-1.38-.25-2.07q-.88-7.42-1.16-15c-.11-2.8-.23-6.46,1.56-8.78a37.56,37.56,0,0,0,14.68,5.61h.6l.27,0h.27l.54,0h.55a20,20,0,0,0,2.32-.06,21.39,21.39,0,0,1,7.39.71l.37.1a17.53,17.53,0,0,1,4.18,1.69l.19.11c.44.25.85.52,1.24.79l.46.33.57.43,1,.81.73.62.25.2.24.2.25.2.25.19c.42.33.85.65,1.32.95l.22.15.23.14.23.14.47.26.24.13.49.25.29.14.49.23.23.1.52.22.53.21a33.11,33.11,0,0,0,5.37,1.46l1.29.22c1.2.19,2.44.34,3.72.46,2.88.26,6,.35,9.17.33,1.4,0,2.82,0,4.26-.07h.16l1.78-.05,4.8-.21,1.11-.05h.16a11,11,0,0,0,2.94-1.07h0c3.27-1.55,7.52-4,9.13-2.08l0,0a5.16,5.16,0,0,1,.2,1.37v.2C179.62,144.15,178.65,151.15,178.6,151.53Z"/>
              <path class="cls-9" d="M171.13,171l0,0h0l0,0c-.35.29-.71.58-1.08.84h0c-.49.36-1.13.79-1.92,1.28l-.08,0-.46.28a45.37,45.37,0,0,1-10.8,4.54l-.29.08h0l-.21.05c-1.75.36-3.53.62-5.29.82-4.26.49-8.41.6-11.81.7h-.19c-2.89.08-5.9.16-9,0a55.51,55.51,0,0,1-9.4-1.12c-1.26-.26-2.54-.59-3.83-1h0c-1.21-.36-2.44-.79-3.68-1.28l-1.65-.66a42.07,42.07,0,0,1-7.9-4.18h0l-1.09-.79h0l-.08-.07-.24-.19,0,0-.33-.26h0l-.22-.18-.08-.07-.19-.16-.88-.79-.28-.27-.26-.25h0l-.3-.3-.31-.33-.28-.31-.27-.32a18.57,18.57,0,0,1-1.31-2,19.81,19.81,0,0,1,3.49-6.41,27,27,0,0,1,13-8.48c4.58-1.35,8.54-1.22,13.39-1.05a60.58,60.58,0,0,1,6.27.54c5.94.81,13.3,1.82,20.39,5.1.6.27,1.19.56,1.78.87a37.52,37.52,0,0,1,10.15,7.71,37.07,37.07,0,0,1,5.4,7.49Z"/>
              <path class="cls-10" d="M159.35,145.25c-.31,2.61,2.06,4.75,5.13,4.7s5.81-2.3,5.85-4.91l0-1.18a10.62,10.62,0,0,1-2.94,1.06h-.16l-1.11.05c-1.62.08-3.22.15-4.8.2l-1.78.06Z"/>
              <path class="cls-10" d="M142.16,144.8a5.37,5.37,0,0,0,4.43,4.95,7.88,7.88,0,0,0,8.51-4.42,81.62,81.62,0,0,1-12.9-.79Z"/>
              <path class="cls-10" d="M124.57,143.64a4.66,4.66,0,0,0,1.47,1.27l.57.3.47.24a10.31,10.31,0,0,0,3.31,1.09,4.36,4.36,0,0,0,2.61-.45,5,5,0,0,0,1.45-1.22,5.76,5.76,0,0,0,.6-.88,6.63,6.63,0,0,0,.31-.59s.14-.35.17-.49a19.57,19.57,0,0,1-3.94-2c-1.49-1-2.67-2.09-4-3.17a18.83,18.83,0,0,0-2.46-1.66,1.73,1.73,0,0,1-.15.19.1.1,0,0,1,0,.05l-.09.12a5.79,5.79,0,0,0-.48.75A6.25,6.25,0,0,0,124.57,143.64Z"/>
              <path class="cls-10" d="M108.6,133.51c0,.11,0,.21,0,.31a.2.2,0,0,1,0,.07v.25a3,3,0,0,0,0,.31v.45c0,.06,0,.13,0,.21s0,.18,0,.28,0,.31.06.46,0,.15,0,.22.06.27.09.4a1.8,1.8,0,0,1,0,.19l.06.17a2.42,2.42,0,0,0,.1.32,3.52,3.52,0,0,0,.15.37s0,0,0,0a7,7,0,0,0,.4.77h0a6.09,6.09,0,0,0,1.17,1.4l.17.14.32.23.17.12.15.08a1.19,1.19,0,0,0,.22.12,2.92,2.92,0,0,0,.36.17l.15.06.13,0,.06,0a3.17,3.17,0,0,0,.44.12c3.17.68,7.16-2.14,7.67-6.52a21.7,21.7,0,0,0-7.39-.7,20,20,0,0,1-2.32.06C110.08,133.66,109.34,133.6,108.6,133.51Z"/>
              <path class="cls-11" d="M108.6,133.51a2.61,2.61,0,0,0,0,.31.2.2,0,0,1,0,.07v.25a3,3,0,0,0,0,.31v.45c0,.06,0,.13,0,.21s0,.18,0,.28,0,.31.06.46,0,.15,0,.22.06.28.09.4a1.8,1.8,0,0,1,0,.19l.06.17a2.42,2.42,0,0,0,.1.32,3.52,3.52,0,0,0,.15.37s0,0,0,0l.13.28c.06.12.15.29.27.49h0a5.68,5.68,0,0,0,1.17,1.4l.17.14.32.23.17.12.15.08a1.19,1.19,0,0,0,.22.12,2.92,2.92,0,0,0,.36.17l.15.06.13,0,.06,0a7.18,7.18,0,0,1-1.86-4.08,7.77,7.77,0,0,1,.26-3c-.73,0-1.46-.07-2.17-.16h-.06Z"/>
              <path class="cls-11" d="M124.57,143.64a4.66,4.66,0,0,0,1.47,1.27l.57.3a7.41,7.41,0,0,1-.42-4.14,8.67,8.67,0,0,1,1.36-3.29,18.83,18.83,0,0,0-2.46-1.66,1.73,1.73,0,0,1-.15.19.1.1,0,0,1,0,.05l-.09.12a5.79,5.79,0,0,0-.48.75A6.25,6.25,0,0,0,124.57,143.64Z"/>
              <path class="cls-11" d="M142.16,144.8a5.37,5.37,0,0,0,4.43,4.95,6.54,6.54,0,0,0,2.12.09c-2.56-.89-2.84-3.51-2.8-4.85-1.28-.11-2.52-.26-3.71-.45Z"/>
              <path class="cls-11" d="M164.47,150a6.44,6.44,0,0,0,4.59-2c-4.61,1.25-8.92-2-9.72-2.68C159.05,147.88,161.41,150,164.47,150Z"/>
              <path class="cls-12" d="M178.6,151.53h0a.11.11,0,0,0,0,.05v0c-.23,1.33-.47,2.68-.71,4v0c-.35,1.92-.73,3.85-1.08,5.77-.71,3.81-3.39,6.52-5.63,9.57l0,0,0,0h-.05c-.14.12-.51.42-1.09.84s-1.13.79-1.92,1.28l-.08,0-.46.28a45.37,45.37,0,0,1-10.8,4.54l-.29.08h0l-.21.05c-1.75.36-3.53.62-5.29.82-4.26.49-8.41.6-11.81.7h-.19c-2.89.07-5.9.15-9,0a56.55,56.55,0,0,1-9.4-1.12h0c-1.26-.26-2.54-.59-3.83-1h0c-1.21-.36-2.44-.79-3.68-1.28l-1.65-.66a42.07,42.07,0,0,1-7.9-4.18h0l-1.09-.79a.05.05,0,0,0,0,0,1.64,1.64,0,0,1-.16-.38c-.29-1.1,1-2.37,1.87-3.16a28.36,28.36,0,0,1,2.83-2.33c.25-.18.48-.34.7-.48h0a17.1,17.1,0,0,1,1.75-1,39.17,39.17,0,0,1,9.65-4c3.15-.78,5.84-.85,11.08-.94,5.83-.11,9.79.16,16.5-.41,1.67-.14,8-.48,7.28-3h0c-.53-1.84-2.19-3.65-4.15-5.23a35,35,0,0,0-3.43-2.42c-1.55-1-3-1.75-4.05-2.27-.58-.3-1-.51-1.27-.62l-.22-.11c.5.1,1,.19,1.52.27,1.19.19,2.43.34,3.71.46,2.89.26,6,.35,9.19.33,1.4,0,2.82,0,4.25-.07,2.57-.07,5.2-.19,7.85-.32h0a10.29,10.29,0,0,0,3.06-1.07c3.28-1.56,7.56-4,9.16-2.07a2.62,2.62,0,0,1,.2,1.37v.2A70.89,70.89,0,0,1,178.6,151.53Z"/>
            </g>
            <path class="cls-5" d="M126.74,189.4a16.39,16.39,0,0,0,15.56,2.39l0,0a1,1,0,0,0,.39-1.5A.71.71,0,0,0,142,190c-4.67.06-10-.08-14.27-2.14A.9.9,0,0,0,126.74,189.4Z"/>
            <circle class="cls-12" cx="143.59" cy="134.57" r="1.55"/>
            <circle class="cls-12" cx="137.08" cy="133.51" r="1.55"/>
            <g class="cls-12">
              <path d="M198.61,275.64c-20.47,40.64-85.27,49.18-121.6,23.89.72-12.12,11.95-21.92,22.45-29,28.33-19.08,68.82-28.82,86.72-60.34,16.61-29.26,8.09-69-9.34-95.95-12.94-20-33.57-27.59-55.69-31.95a99.84,99.84,0,0,1,22.72.51c10.24,1.31,20.34,3.55,28.95,8.46C183.74,97.5,191.1,109,195.1,120.63c7.18,21,2,27.7,5.34,67.38C202.81,216.41,212.21,248.64,198.61,275.64Z"/>
            </g>
            <g class="cls-5">
              <path d="M183.61,294.94c-23.74,19.77-62.13,24.12-91.31,12.48,1,.19,1.91.35,2.87.48,11.56,1.57,23.29-.48,34.71-2.86C147.69,301.33,165.6,296.75,183.61,294.94Z"/>
            </g>
          </g>
        </g>
      </g>
    </g>
  </g>
</svg>
