<svg xmlns="http://www.w3.org/2000/svg" viewBox="0 0 117.97 118.13">
  <defs>
    <style>
      .cls-1, .cls-2 {
        fill: #212c32;
      }

      .cls-2 {
        fill-rule: evenodd;
      }
    </style>
  </defs>
  <title>basket_1</title>
  <g id="Layer_2" data-name="Layer 2">
    <g id="Layer_1-2" data-name="Layer 1">
      <g>
        <path class="cls-1" d="M0,43.36V60.14A10.28,10.28,0,0,0,10.26,70.41h.53v36.22a11.53,11.53,0,0,0,11.5,11.5H95.68a11.53,11.53,0,0,0,11.5-11.5V70.41h.48A10.32,10.32,0,0,0,118,60.14V43.36A10.31,10.31,0,0,0,107.66,33.1H56l5.2,5.2a3.33,3.33,0,0,1,.9,2.29h45.59a2.8,2.8,0,0,1,2.81,2.77V60.14a2.8,2.8,0,0,1-2.81,2.78H10.26a2.77,2.77,0,0,1-2.77-2.78V43.36a2.77,2.77,0,0,1,2.77-2.77H54.58L47.09,33.1H10.26A10.27,10.27,0,0,0,0,43.36ZM18.28,70.41h81.4v36.22a4,4,0,0,1-4,4H22.29a4,4,0,0,1-4-4Z" transform="translate(0 0)"/>
        <path class="cls-2" d="M33.05,114.39h7.4V85.84a1,1,0,0,0-1-1H34a1,1,0,0,0-1,1Z" transform="translate(0 0)"/>
        <path class="cls-2" d="M55.27,114.39h7.4V85.84a1,1,0,0,0-1-1H56.26a1,1,0,0,0-1,1Z" transform="translate(0 0)"/>
        <path class="cls-2" d="M77.49,114.39h7.4V85.84a1,1,0,0,0-1-1H78.48a1,1,0,0,0-1,1Z" transform="translate(0 0)"/>
        <path class="cls-1" d="M21.54,18.11l15,15L51.43,48a10.63,10.63,0,0,0,15,0,10.46,10.46,0,0,0,3.11-7.45v0a10.66,10.66,0,0,0-3-7.45L66.46,33,36.52,3.09a10.61,10.61,0,0,0-15,15Zm5.28-9.7a3.09,3.09,0,0,1,4.42,0L56,33.1l5.2,5.2a3.33,3.33,0,0,1,.9,2.29,3.11,3.11,0,0,1-5.32,2.17L26.82,12.83A3.11,3.11,0,0,1,26.82,8.41Z" transform="translate(0 0)"/>
      </g>
    </g>
  </g>
</svg>
