<svg xmlns="http://www.w3.org/2000/svg" viewBox="0 0 40.2 53.77">
  <defs>
    <style>
      .cls-1 {
        fill: #007d69;
      }
    </style>
  </defs>
  <title>calorias</title>
  <g id="Layer_2" data-name="Layer 2">
    <g id="Layer_1-2" data-name="Layer 1">
      <path class="cls-1" d="M30.64,14.23,30,13.37c-.13-.18-.54-.74-1.13-1.51-3.6-4.79-5.93-8-7-9.6l-.21-.33-.4-.63C21.16,1,21,.76,20.82.51a1.12,1.12,0,0,0-.56-.45A1.19,1.19,0,0,0,19.89,0a1,1,0,0,0-.43.09.69.69,0,0,0-.19.1c-.29.19-.56.42-.83.63s-.58.46-.85.71-.66.61-1,.93a11.48,11.48,0,0,0-.95,1.14,10,10,0,0,0-.79,1.3l-.09.2c-1.52,3.36-.1,7.12,1,10.14.18.48.39,1,.63,1.55.85,2,2,4.82,1.31,6.29-.1.2-.39.82-1.77,1.22a3.45,3.45,0,0,1-1.72,0,5.87,5.87,0,0,1-1.86-.79A9,9,0,0,1,10.63,22a9.72,9.72,0,0,1-.7-.86,1.09,1.09,0,0,0-.83-.37,1,1,0,0,0-.43.09,10.44,10.44,0,0,0-1,.58c-.32.18-.63.38-.93.59A15.53,15.53,0,0,0,5,23.38a16.14,16.14,0,0,0-1.47,1.51,15.53,15.53,0,0,0-1.22,1.67,13.85,13.85,0,0,0-1,1.82,13.72,13.72,0,0,0-.72,1.94,16.13,16.13,0,0,0-.46,2.06A17.56,17.56,0,0,0,0,34.16,18.86,18.86,0,0,0,8.66,50.34a22.06,22.06,0,0,0,11.85,3.43,20.71,20.71,0,0,0,10.7-2.9,18.58,18.58,0,0,0,8.95-14.25C40.72,28.39,35.13,20.54,30.64,14.23Zm6.53,22.18A15.54,15.54,0,0,1,29.65,48.3a18.68,18.68,0,0,1-19.37-.49A15.78,15.78,0,0,1,3,34.27a12.08,12.08,0,0,1,5.68-10c2.44,2.51,5.53,3.62,8.15,2.86a5.46,5.46,0,0,0,3.64-2.81c1.28-2.68-.13-6-1.26-8.74-.21-.51-.42-1-.58-1.44-1-2.76-2.11-5.62-1.11-7.86a8,8,0,0,1,1.89-2.41c.52.8,1.21,1.77,2.09,3,1.69,2.36,3.76,5.11,5,6.75l1.09,1.45.61.86C32.41,21.89,37.65,29.26,37.17,36.41Z"/>
    </g>
  </g>
</svg>
