<svg xmlns="http://www.w3.org/2000/svg" viewBox="0 0 144.09 145.21">
  <defs>
    <style>
      .cls-1 {
        fill: #212c32;
      }
    </style>
  </defs>
  <title>lunch</title>
  <g id="Layer_2" data-name="Layer 2">
    <g id="Layer_1-2" data-name="Layer 1">
      <g>
        <path class="cls-1" d="M28.91,47.23H24.07V18.74a2.19,2.19,0,0,0-2.19-2.19H20.19a2.21,2.21,0,0,0-1.45.54L9.43,25.32a2.19,2.19,0,0,0-.32,2.92l.68,1a3.06,3.06,0,0,0,4.34.39l3.39-3V47.23h-5.2a2.2,2.2,0,0,0-2.2,2.19v1.66a2.2,2.2,0,0,0,2.2,2.19H28.91a2.19,2.19,0,0,0,2.19-2.19V49.42A2.19,2.19,0,0,0,28.91,47.23Z"/>
        <path class="cls-1" d="M57.11,47.7A3,3,0,0,0,55,46.84H43.55l6.08-6.2c.94-1,1.84-1.89,2.69-2.8a24.12,24.12,0,0,0,2.44-3.07,15.28,15.28,0,0,0,1.75-3.47,12.08,12.08,0,0,0,.69-4.12,11.25,11.25,0,0,0-1-4.73A9.9,9.9,0,0,0,53.65,19,10.59,10.59,0,0,0,50,17a14.19,14.19,0,0,0-8.58.05A11.15,11.15,0,0,0,35,22.49a13,13,0,0,0-1.36,4.43,2.17,2.17,0,0,0,1.81,2.44l1.09.18.18,0,.41,0a3.09,3.09,0,0,0,3-2.39,1.17,1.17,0,0,0,0-.2,6.09,6.09,0,0,1,.65-1.84A5.29,5.29,0,0,1,42,23.79a5.23,5.23,0,0,1,1.62-.91,6.67,6.67,0,0,1,4.1,0,4.32,4.32,0,0,1,1.52.83,4,4,0,0,1,1,1.39,5.35,5.35,0,0,1,.39,2.18,6.77,6.77,0,0,1-.36,2.23,11,11,0,0,1-1.12,2.25,17.77,17.77,0,0,1-1.81,2.34c-.75.84-1.57,1.71-2.45,2.61l-11,11.13a3.82,3.82,0,0,0-.73,1,3.32,3.32,0,0,0-.34,1.46v.77A2.19,2.19,0,0,0,35,53.27H55.78A2.19,2.19,0,0,0,58,51.08V49.81A3,3,0,0,0,57.11,47.7Z"/>
      </g>
      <g>
        <path class="cls-1" d="M58.48,145.21a5.38,5.38,0,0,1-5.37-5.37V129.11a5.37,5.37,0,0,1,10.74,0v10.73A5.38,5.38,0,0,1,58.48,145.21Z"/>
        <path class="cls-1" d="M138.73,64.91H128a5.37,5.37,0,1,1,0-10.73h10.74a5.37,5.37,0,0,1,0,10.73Z"/>
        <path class="cls-1" d="M116,119.23a5.38,5.38,0,0,1-3.73-1.5l-7.73-7.44a5.37,5.37,0,0,1,7.45-7.74l7.73,7.45a5.37,5.37,0,0,1-3.72,9.23Z"/>
        <path class="cls-1" d="M122,1.49a5.1,5.1,0,0,0-7.22,0L1.49,115.45a5.11,5.11,0,1,0,7.24,7.21L23.41,107.9a59.73,59.73,0,0,0,94.83-48.36,59.43,59.43,0,0,0-11.62-35.32L122,8.71A5.1,5.1,0,0,0,122,1.49ZM107.16,53.68a49,49,0,0,1-48.68,54.89c-1,0-2.11,0-3.14-.1a48.73,48.73,0,0,1-24.24-8.3L99,31.92A48.71,48.71,0,0,1,107.16,53.68Z"/>
      </g>
    </g>
  </g>
</svg>
