<svg xmlns="http://www.w3.org/2000/svg" viewBox="0 0 127.68 127.68">
  <defs>
    <style>
      .cls-1 {
        fill: #f2d10f;
      }
    </style>
  </defs>
  <title>sunActive</title>
  <g id="Layer_2" data-name="Layer 2">
    <g id="Layer_1-2" data-name="Layer 1">
      <g>
        <path class="cls-1" d="M63.88,108.38a44.54,44.54,0,1,1,44.54-44.54A44.59,44.59,0,0,1,63.88,108.38Zm0-81.08a36.54,36.54,0,1,0,36.54,36.54A36.59,36.59,0,0,0,63.88,27.3Z"/>
        <g>
          <path class="cls-1" d="M63.88,16a4,4,0,0,1-4-4V4a4,4,0,1,1,8,0v8A4,4,0,0,1,63.88,16Z"/>
          <path class="cls-1" d="M63.88,127.68a4,4,0,0,1-4-4v-8a4,4,0,1,1,8,0v8A4,4,0,0,1,63.88,127.68Z"/>
          <path class="cls-1" d="M123.68,67.84h-8a4,4,0,0,1,0-8h8a4,4,0,0,1,0,8Z"/>
          <path class="cls-1" d="M12,67.84H4a4,4,0,0,1,0-8h8a4,4,0,0,1,0,8Z"/>
        </g>
        <g>
          <path class="cls-1" d="M26.3,30.85a4,4,0,0,1-2.78-1.12l-5.76-5.55a4,4,0,1,1,5.55-5.76L29.07,24a4,4,0,0,1-2.77,6.88Z"/>
          <path class="cls-1" d="M106.74,108.33a4,4,0,0,1-2.78-1.12l-5.76-5.55a4,4,0,1,1,5.55-5.76l5.76,5.55a4,4,0,0,1-2.77,6.88Z"/>
          <path class="cls-1" d="M99.57,29.5a4,4,0,0,1-2.77-1.12,4,4,0,0,1-.11-5.65L102.24,17A4,4,0,1,1,108,22.51l-5.55,5.77A4,4,0,0,1,99.57,29.5Z"/>
          <path class="cls-1" d="M22.1,109.94a4,4,0,0,1-2.88-6.77l5.54-5.76A4,4,0,0,1,30.53,103L25,108.72A4,4,0,0,1,22.1,109.94Z"/>
        </g>
      </g>
    </g>
  </g>
</svg>
