<svg xmlns="http://www.w3.org/2000/svg" viewBox="0 0 77.81 68.11">
  <defs>
    <style>
      .cls-1 {
        fill: #60665a;
        fill-rule: evenodd;
      }
    </style>
  </defs>
  <title>heart</title>
  <g id="Layer_2" data-name="Layer 2">
    <g id="Layer_1-2" data-name="Layer 1">
      <g id="heart">
        <path class="cls-1" d="M71,6.79C59.47-4.74,48.05.3,38.9,8.52,29.76.3,18.42-4.83,6.81,6.79a22.92,22.92,0,0,0,0,32.6c32,28.78,32,28.72,32,28.72s0,.1,32.2-28.72A22.92,22.92,0,0,0,71,6.79Zm-3.42,28.7C50.41,50.66,42.48,58.78,38.82,62c-3.67-3.24-11.6-11.41-28.76-26.64a17.45,17.45,0,0,1-5.2-12.42,17.79,17.79,0,0,1,5.39-12.78c3.61-3.56,7.15-5.29,10.84-5.29,4.29,0,9.19,2.42,14.56,7.18L38.9,14.9,42.15,12C47.5,7.28,52.4,4.88,56.73,4.88c3.7,0,7.25,1.72,10.83,5.25a17.82,17.82,0,0,1,5.38,12.78A17.55,17.55,0,0,1,67.58,35.49Z"/>
      </g>
    </g>
  </g>
</svg>
