<svg xmlns="http://www.w3.org/2000/svg" viewBox="0 0 161.6 161.6">
  <defs>
    <style>
      .cls-1, .cls-3 {
        fill: #007d69;
      }

      .cls-2 {
        fill: #fff;
      }

      .cls-3 {
        opacity: 0.17;
      }
    </style>
  </defs>
  <title>locationIcon</title>
  <g id="Layer_2" data-name="Layer 2">
    <g id="Layer_1-2" data-name="Layer 1">
      <g>
        <g>
          <circle class="cls-1" cx="81.9" cy="81.9" r="54.56"/>
          <path class="cls-2" d="M102.12,71.64v2.67a3.12,3.12,0,0,0-.09.44,19.81,19.81,0,0,1-3.72,9.83Q91.16,94.68,84,104.76c-1,1.36-2.17,1.37-3.13,0L66.61,84.64A19.46,19.46,0,0,1,63,70.28,19.68,19.68,0,0,1,79.6,53.52l1.51-.23h2.66l1.36.21a18.69,18.69,0,0,1,8.33,3.2,19.48,19.48,0,0,1,8.44,13.43C102,70.63,102.05,71.14,102.12,71.64ZM89,73a6.56,6.56,0,1,0-6.53,6.57A6.57,6.57,0,0,0,89,73Z"/>
        </g>
        <circle class="cls-3" cx="80.8" cy="80.8" r="80.8"/>
      </g>
    </g>
  </g>
</svg>
