<svg xmlns="http://www.w3.org/2000/svg" viewBox="0 0 108.32 112.56">
  <defs>
    <style>
      .cls-1 {
        fill: #2dc0e2;
      }
    </style>
  </defs>
  <title>moonActive_1</title>
  <g id="Layer_2" data-name="Layer 2">
    <g id="Layer_1-2" data-name="Layer 1">
      <path class="cls-1" d="M107.42,76.51c-1.49-1.89-3.48-1.6-4.67-1.43l-.22,0c-2.22.31-4.42.54-6.75.79l-2.55.28c-1-.11-1.93-.19-2.9-.28a59.89,59.89,0,0,1-6.47-.84A48.49,48.49,0,0,1,49.39,6.74a6.11,6.11,0,0,0,.12-4.69C48.31-.66,45.37,0,44.27.26a56.85,56.85,0,0,0,12.42,112.3,57.42,57.42,0,0,0,8.92-.7c18.46-2.91,32.51-13,41.76-29.9C108,80.9,109.15,78.71,107.42,76.51ZM48.25,62.24C60,77.46,76,84.9,95.84,84.38A48.66,48.66,0,0,1,46.68,103C24.77,98.43,8.71,78.57,8.5,55.78a47.7,47.7,0,0,1,30.29-45C33.31,29.67,36.49,47,48.25,62.24Z"/>
    </g>
  </g>
</svg>
