<svg xmlns="http://www.w3.org/2000/svg" viewBox="0 0 142.96 142.96">
  <defs>
    <style>
      .cls-1 {
        fill: #212c32;
      }

      .cls-2 {
        fill: #fff;
      }
    </style>
  </defs>
  <title>a1</title>
  <g id="Layer_2" data-name="Layer 2">
    <g id="Layer_1-2" data-name="Layer 1">
      <circle class="cls-1" cx="71.48" cy="71.48" r="71.48"/>
      <g>
        <rect class="cls-2" x="68.66" y="40.5" width="4.66" height="13.74" rx="1.65" ry="1.65"/>
        <rect class="cls-2" x="68.66" y="64.46" width="4.66" height="10.47" rx="1.65" ry="1.65"/>
        <rect class="cls-2" x="68.66" y="84.55" width="4.66" height="18.91" rx="1.65" ry="1.65"/>
        <path class="cls-2" d="M88.38,68.1H53.84a4.12,4.12,0,0,1-2.13-.59l-.27-.18-6.51-4.18a3.46,3.46,0,0,1-1.45-2.83,3.5,3.5,0,0,1,1-2.48l.59-.47,6.61-4.63a4.09,4.09,0,0,1,2.15-.61H88.38a5.51,5.51,0,0,1,5.43,4.68l0,.31,0,6.28A5.51,5.51,0,0,1,88.38,68.1ZM48.29,60.3,54,63.92l34.43-.05a1.28,1.28,0,0,0,1.23-1v-5.6a1.27,1.27,0,0,0-1.23-1H53.92Z"/>
        <path class="cls-2" d="M86.27,87.83H51.75a5.51,5.51,0,0,1-5.43-4.68l0-.31,0-6.28a5.52,5.52,0,0,1,5.43-4.7H86.3a4.17,4.17,0,0,1,2.13.59l.12.08.15.11,6.49,4.16a3.48,3.48,0,0,1,1.47,2.84,3.54,3.54,0,0,1-1,2.49l-.58.46-6.62,4.63A4.07,4.07,0,0,1,86.27,87.83ZM50.52,82.65a1.28,1.28,0,0,0,1.23.95H86.21l5.63-3.93L86.16,76l-34.41,0a1.28,1.28,0,0,0-1.23,1Z"/>
      </g>
    </g>
  </g>
</svg>
