<svg xmlns="http://www.w3.org/2000/svg" viewBox="0 0 142.96 142.96">
  <defs>
    <style>
      .cls-1 {
        fill: #212c32;
      }

      .cls-2 {
        fill: #fff;
        fill-rule: evenodd;
      }
    </style>
  </defs>
  <title>a4</title>
  <g id="Layer_2" data-name="Layer 2">
    <g id="Layer_1-2" data-name="Layer 1">
      <circle class="cls-1" cx="71.48" cy="71.48" r="71.48"/>
      <g id="_" data-name="$">
        <path class="cls-2" d="M72.53,40.82A31.42,31.42,0,1,0,104,72.23,31.41,31.41,0,0,0,72.53,40.82Zm0,58.9A27.49,27.49,0,1,1,100,72.23,27.49,27.49,0,0,1,72.53,99.72Zm2.62-29.13c-1.18-.49-5.49-1.17-5.49-3.06,0-1.39,1.61-1.79,2.58-1.79a3.78,3.78,0,0,1,2.49.83,2.11,2.11,0,0,1,.62.93c.15.4.24.84.79.84H79c.68,0,.85-.13.85-.87,0-3.18-2.49-5-5.34-5.6V59.4c0-.56-.18-.9-.85-.9H71.39c-.68,0-.85.34-.85.9v2.38c-3.06.59-5.61,2.51-5.61,6,0,3.93,2.73,5.16,5.69,6.15,2.5.84,5.11.87,5.11,2.6s-1.29,2.1-2.87,2.1a3.75,3.75,0,0,1-2.88-1,2.18,2.18,0,0,1-.56-1.27c-.06-.77-.38-.86-1.06-.86H65.52c-.68,0-.85.15-.85.86,0,3.53,2.81,5.66,5.87,6.34v2.42c0,.55.17.89.85.89h2.29c.67,0,.85-.34.85-.89V82.72c3.46-.53,5.84-2.63,5.84-6.34C80.37,72.17,77.26,71.27,75.15,70.59Z"/>
      </g>
    </g>
  </g>
</svg>
