<svg xmlns="http://www.w3.org/2000/svg" viewBox="0 0 46.48 65.21">
  <defs>
    <style>
      .cls-1 {
        fill: #007d69;
      }
    </style>
  </defs>
  <title>accountGreen</title>
  <g id="Layer_2" data-name="Layer 2">
    <g id="Layer_1-2" data-name="Layer 1">
      <g>
        <path class="cls-1" d="M26.21,65.21H20.62l-2.79-.31a33.2,33.2,0,0,1-10.1-2.6,16.07,16.07,0,0,1-4.85-3.24A9.21,9.21,0,0,1,0,52.32a31.21,31.21,0,0,1,1.78-10.5,27.8,27.8,0,0,1,8.72-12.6A20.11,20.11,0,0,1,24,24.48,19,19,0,0,1,31,26.17a22.45,22.45,0,0,1,7.25,5.09,28.44,28.44,0,0,1,6.08,9.53,31.71,31.71,0,0,1,2.19,11.59c0,3.11-1.44,5.77-4.32,7.91a24.92,24.92,0,0,1-9.91,4,46.21,46.21,0,0,1-5.87.78ZM21,61.15h4.3a3.06,3.06,0,0,1,.74-.09,43.44,43.44,0,0,0,5.42-.71A21,21,0,0,0,39.74,57c1.84-1.36,2.69-2.83,2.68-4.64a27.57,27.57,0,0,0-1.9-10.11,24.14,24.14,0,0,0-5.22-8.19,18.45,18.45,0,0,0-5.95-4.2,14.81,14.81,0,0,0-5.48-1.35A15.75,15.75,0,0,0,13,32.39,23.38,23.38,0,0,0,5.6,43.18a27.28,27.28,0,0,0-1.54,9.14,5.16,5.16,0,0,0,1.67,3.85,12.34,12.34,0,0,0,3.66,2.42,29.36,29.36,0,0,0,8.89,2.26Z"/>
        <path class="cls-1" d="M22.67,22.67A11.34,11.34,0,1,1,34,11.33,11.35,11.35,0,0,1,22.67,22.67Zm0-18.61A7.28,7.28,0,1,0,30,11.33,7.29,7.29,0,0,0,22.67,4.06Z"/>
      </g>
    </g>
  </g>
</svg>
