<svg xmlns="http://www.w3.org/2000/svg" viewBox="0 0 64.67 64.67">
  <defs>
    <style>
      .cls-1 {
        fill: #007d69;
        fill-rule: evenodd;
      }
    </style>
  </defs>
  <title>filter</title>
  <g id="Layer_2" data-name="Layer 2">
    <g id="Layer_1-2" data-name="Layer 1">
      <g id="conf">
        <path class="cls-1" d="M12.12,0h-4V34.35h4Zm-2,34.35a10.11,10.11,0,0,0-2,20V64.67h4V54.36a10.11,10.11,0,0,0-2-20Zm0,16.16a6.06,6.06,0,1,1,6.06-6A6.05,6.05,0,0,1,10.1,50.51ZM54.56,34.35a10.11,10.11,0,0,0-2,20V64.67h4V54.36a10.11,10.11,0,0,0-2-20Zm0,16.16a6.06,6.06,0,1,1,6.06-6A6.05,6.05,0,0,1,54.56,50.51ZM34.35,10.31V0h-4V10.31a10.1,10.1,0,0,0,0,19.8V64.67h4V30.11a10.1,10.1,0,0,0,0-19.8Zm-2,16a6.06,6.06,0,1,1,6.06-6.05A6.05,6.05,0,0,1,32.33,26.26ZM56.58,0h-4V34.35h4Z"/>
      </g>
    </g>
  </g>
</svg>
