<svg xmlns="http://www.w3.org/2000/svg" viewBox="0 0 66.54 67.1">
  <defs>
    <style>
      .cls-1 {
        fill: #60665a;
        fill-rule: evenodd;
      }
    </style>
  </defs>
  <title>home</title>
  <g id="Layer_2" data-name="Layer 2">
    <g id="Layer_1-2" data-name="Layer 1">
      <g id="home">
        <path class="cls-1" d="M25,25.15a8.31,8.31,0,1,0,8.31-8.39A8.35,8.35,0,0,0,25,25.15Zm12.46,0A4.16,4.16,0,1,1,33.27,21,4.17,4.17,0,0,1,37.42,25.15ZM65.47,17,34.35.25A2.3,2.3,0,0,0,34,.13a2,2,0,0,0-.32-.1,3,3,0,0,0-.84,0,2,2,0,0,0-.32.1,2.3,2.3,0,0,0-.34.12L1.07,17a2.07,2.07,0,0,0-.78,2.86,2.14,2.14,0,0,0,2.91.77L6,19.13V60.76a6.6,6.6,0,0,0,6.45,6.34H54.05a6.26,6.26,0,0,0,6.23-6.29V19l3.06,1.65a2.14,2.14,0,0,0,2.91-.77A2.07,2.07,0,0,0,65.47,17Zm-26,45.88H27V48.22a2.09,2.09,0,0,1,2.08-2.1h8.31a2.09,2.09,0,0,1,2.08,2.1Zm16.63-4.2A4.18,4.18,0,0,1,52,62.91H43.66V46.12a4.18,4.18,0,0,0-4.16-4.19H27a4.17,4.17,0,0,0-4.15,4.19V62.91H14.57a4.18,4.18,0,0,1-4.16-4.2V16.77L33.27,4.45,56.13,16.77Z"/>
      </g>
    </g>
  </g>
</svg>
