<svg xmlns="http://www.w3.org/2000/svg" viewBox="0 0 349.77 57.18">
  <defs>
    <style>
      .cls-1 {
        fill: #212c32;
      }
    </style>
  </defs>
  <title>loncheandoLogo</title>
  <g id="Layer_2" data-name="Layer 2">
    <g id="Layer_1-2" data-name="Layer 1">
      <g>
        <path class="cls-1" d="M0,56V0H12.29V56Z"/>
        <path class="cls-1" d="M33.11,57.18c-11.11,0-20.44-7.7-20.44-19.78S22,17.92,33.11,17.92,53.62,25.33,53.62,37.4,44.29,57.18,33.11,57.18Zm0-29.18c-5.71,0-8.67,4.66-8.67,9.4s3,9.56,8.74,9.56,8.74-4.82,8.74-9.56S38.81,28,33.11,28Z"/>
        <path class="cls-1" d="M78.14,56V35.85c0-4.08-1.11-7.78-5.48-7.78s-6.51,3.7-6.51,7.93V56H53.92V19.11H65.7v5.11h.15c1.7-3.26,5.92-6.15,11-6.15,9.93,0,13.48,7.71,13.48,15.11V56Z"/>
        <path class="cls-1" d="M117.55,31a8.46,8.46,0,0,0-6.44-3c-5.11,0-8.52,4.37-8.52,9.48S105.92,47,111.25,47a8.82,8.82,0,0,0,6.6-2.74l6.74,8.22c-3,3-8.22,4.74-13.63,4.74-11.63,0-20.67-7.41-20.67-19.63,0-12,9.11-19.63,20.59-19.63,5.26,0,10.82,2,13.71,5Z"/>
        <path class="cls-1" d="M146.29,56V36c0-4.15-1-7.78-5.41-7.78-4.22,0-6.59,3.48-6.59,7.85V56H122.15V0h12.14V23.78h.15A12,12,0,0,1,145,18.07c10,0,13.48,7.71,13.48,15.11V56Z"/>
        <path class="cls-1" d="M196.81,40.88H170.07c.37,4.08,4.44,7,8.81,7A9.65,9.65,0,0,0,187,44l8.44,5.33c-3.48,5-9.26,7.85-16.74,7.85-11.11,0-20.29-7-20.29-19.48,0-12.07,8.74-19.78,19.92-19.78,10.89,0,18.52,7.49,18.52,20.08C196.88,39,196.88,40,196.81,40.88ZM185.7,33.33c0-3.85-2.45-7-7.26-7s-8.08,3.26-8.37,7Z"/>
        <path class="cls-1" d="M196.07,24.15a24.13,24.13,0,0,1,16.44-6.23c12.37,0,17,6.08,17,19.48V56H218.36V52.07h-.22c-1.85,3-6.07,4.81-10.44,4.81-5.85,0-13.41-2.89-13.41-11.55,0-10.67,13-12.44,23.7-12.44v-.6c0-3.63-2.89-5.33-6.66-5.33a13.93,13.93,0,0,0-9.11,3.78Zm22.29,15.77h-1.55c-5.33,0-11.33.67-11.33,5,0,2.81,2.81,3.78,5.25,3.78,4.89,0,7.63-3,7.63-7.56Z"/>
        <path class="cls-1" d="M255.32,56V35.85c0-4.08-1.11-7.78-5.48-7.78s-6.51,3.7-6.51,7.93V56H231.1V19.11h11.78v5.11H243c1.7-3.26,5.93-6.15,11-6.15,9.92,0,13.48,7.71,13.48,15.11V56Z"/>
        <path class="cls-1" d="M297.25,56V51.18h-.15C294.73,54.88,289.92,57,285,57c-11.11,0-17.55-9.33-17.55-19.63s6.66-19.33,17.4-19.33a14.55,14.55,0,0,1,11.26,5h.15V0h12.14V56Zm-9.33-28c-5.78,0-8.74,4.66-8.74,9.4s3,9.56,8.74,9.56c5.48,0,8.89-4.67,8.89-9.48S293.4,28,287.92,28Z"/>
        <path class="cls-1" d="M329.25,57.18c-11.11,0-20.44-7.7-20.44-19.78s9.33-19.48,20.44-19.48,20.52,7.41,20.52,19.48S340.43,57.18,329.25,57.18Zm0-29.18c-5.7,0-8.67,4.66-8.67,9.4s3,9.56,8.74,9.56,8.74-4.82,8.74-9.56S335,28,329.25,28Z"/>
      </g>
    </g>
  </g>
</svg>
